<svg width="23" height="24" viewBox="0 0 23 24" fill="none" xmlns="http://www.w3.org/2000/svg">
<path fill-rule="evenodd" clip-rule="evenodd" d="M14.8739 4.99673C17.7564 7.85719 17.7564 12.4949 14.8739 15.3554C11.9914 18.2158 7.31806 18.2158 4.4356 15.3554C1.55315 12.4949 1.55315 7.85719 4.4356 4.99673C7.31806 2.13628 11.9914 2.13628 14.8739 4.99673ZM16.966 16.0224C19.9443 12.3635 19.7202 6.98845 16.2935 3.58795C12.627 -0.0505557 6.68248 -0.0505564 3.01598 3.58795C-0.65051 7.22645 -0.65051 13.1256 3.01598 16.7641C6.44274 20.1647 11.8594 20.3871 15.5464 17.4312L21.2747 23.1157C21.6667 23.5048 22.3023 23.5048 22.6943 23.1157C23.0863 22.7267 23.0863 22.096 22.6943 21.707L16.966 16.0224Z" fill="white"/>
</svg>
