<svg width="20" height="22" viewBox="0 0 20 22" fill="none" xmlns="http://www.w3.org/2000/svg">
<path fill-rule="evenodd" clip-rule="evenodd" d="M19.9808 9.14813C19.9808 8.933 19.8884 8.72822 19.7272 8.58586L10.4964 0.437708C10.2128 0.18741 9.78728 0.18741 9.50373 0.437708L0.272957 8.58585C0.111671 8.72822 0.019289 8.933 0.019289 9.14813V21C0.019289 21.4142 0.355076 21.75 0.769289 21.75H6.91466C6.91751 21.75 6.92036 21.75 6.92321 21.75C6.92606 21.75 6.92891 21.75 6.93176 21.75H13.0685C13.0714 21.75 13.0742 21.75 13.0771 21.75C13.0799 21.75 13.0828 21.75 13.0856 21.75H19.2308C19.645 21.75 19.9808 21.4142 19.9808 21V9.14813ZM13.8271 20.25H18.4808V9.48649L10.0001 2.00038L1.51929 9.48649V20.25H6.17321V13.3077C6.17321 12.8935 6.509 12.5577 6.92321 12.5577H13.0771C13.4913 12.5577 13.8271 12.8935 13.8271 13.3077V20.25ZM12.3271 20.25V14.0577H7.67321V20.25H12.3271Z" fill="white"/>
</svg>
