<svg width="266" height="251" viewBox="0 0 266 251" fill="none" xmlns="http://www.w3.org/2000/svg">
<path d="M253.244 69.2154C255.29 50.5758 251.364 35.5474 243.701 24.0502C225.387 -3.43213 180.688 -0.442276 156.12 0.696116C119.569 2.38932 70.54 4.65981 35.7498 42.1134C-11.2309 92.6909 -11.453 185.044 32.4066 226.22C45.8848 238.874 91.1192 253.696 182.214 249.799C209.098 248.649 232.46 250.869 255.851 208.312C279.198 165.834 246.374 131.79 253.244 69.2154Z" fill="#E1E1E1"/>
<path d="M98.8964 171.488L129.061 112.673C131.618 107.687 129.183 104.041 123.172 103.023L116.423 101.88C107.708 100.404 104.47 96.2104 107.234 91.138L112.119 84.4722L122.447 84.7734L120.834 88.908C119.786 91.5957 121.912 93.7088 126.652 94.4237L132.994 95.3804C143.143 96.9118 148.206 102.635 145.169 110.969L131.434 166.032L98.8955 171.487L98.8964 171.488Z" fill="#AABBCC"/>
<path d="M116.762 81.3754L105.664 85.9847L127.86 85.25L116.762 81.3754Z" fill="#AABBCC"/>
<path d="M93.6569 196.41L194.833 134.009C202.802 129.587 212.224 127.838 219.469 129.053L227.522 130.404C237.795 132.126 248.065 130.273 254.506 126.09L263.506 121.072L252.731 117.569L247.06 120.569C243.28 122.569 237.772 123.265 232.494 122.265L225.376 120.917C213.853 118.735 196.661 117.531 182.137 124.035L63.8978 186.021L93.6569 196.411V196.41Z" fill="#AABBCC"/>
<path d="M245.595 116.545L261.17 115.275L266 123.567L245.595 116.545Z" fill="#AABBCC"/>
<path d="M84.1468 242.136H3.02249L225.33 47.4844L238.105 49.1236L84.1468 242.136Z" fill="#E77A16"/>
<path d="M215.332 48.7621L237.346 42.974L243.396 52.3679L215.332 48.7621Z" fill="#E77A16"/>
<path d="M55.1618 100.885C55.1618 100.885 35.7219 108.615 37.9583 121.135C40.1937 133.656 53.5531 145.059 57.0187 142.152C59.8134 137.121 59.7064 138.239 57.8316 135.109C55.9567 131.979 46.6778 123.259 57.0744 118.341C67.471 113.422 55.1618 100.885 55.1618 100.885Z" fill="url(#paint0_linear_227_841)"/>
<path d="M51.6046 222.168C51.4832 221.497 49.3161 220.89 48.2443 221.789C47.7119 222.235 47.3451 223.139 47.6535 223.548C47.7659 223.696 47.3064 223.958 47.7461 223.963C49.2055 223.98 51.726 222.835 51.6055 222.168H51.6046Z" fill="url(#paint1_linear_227_841)"/>
<path d="M49.3332 222.413L47.105 222.098C48.1373 220.855 47.9457 216.898 47.9457 216.898L50.3151 217.427C50.3151 217.427 50.0454 218.513 49.5859 220.115C49.4285 220.664 49.3584 221.523 49.3323 222.413H49.3332Z" fill="url(#paint2_linear_227_841)"/>
<path d="M49.531 222.138C49.531 222.138 46.8487 221.521 46.5583 222.052C46.2678 222.584 46.043 224.009 47.7443 223.963C49.4465 223.917 49.6812 222.589 49.5301 222.138H49.531Z" fill="url(#paint3_linear_227_841)"/>
<path d="M82.1739 224.684C81.959 224.037 79.7299 223.739 78.7929 224.779C78.328 225.295 78.0915 226.242 78.4539 226.603C78.5861 226.734 78.168 227.057 78.6041 227.001C80.0509 226.814 82.387 225.327 82.1739 224.684Z" fill="url(#paint4_linear_227_841)"/>
<path d="M79.9592 225.243H77.7094C78.5573 223.869 77.8146 219.977 77.8146 219.977L80.2343 220.169C80.2343 220.169 80.1192 221.282 79.889 222.933C79.8099 223.499 79.8611 224.359 79.9601 225.244L79.9592 225.243Z" fill="url(#paint5_linear_227_841)"/>
<path d="M85.7905 140.155C86.8327 143.598 88.3209 149.153 89.2794 156.123C92.0121 176.003 86.2032 176.637 87.2886 198.667C87.6348 205.699 81.1965 221.915 80.6291 222.272C80.3548 222.299 80.0563 222.317 79.7389 222.308C79.1787 222.29 78.3892 222.205 77.4711 221.93C76.4514 221.755 72.7736 211.794 73.6261 205.873C74.2294 201.682 74.0541 197.184 73.7043 188.187C73.6477 186.73 69.9187 159.828 69.9187 159.828C68.7839 169.786 67.48 178.247 66.3488 184.806C62.7151 205.882 50.8996 218.637 50.2837 218.842C50.1623 218.891 49.0535 219.293 48.1471 218.696C47.7434 218.43 47.6067 218.088 47.6067 218.088C47.2911 217.84 47.7002 197.046 51.3033 181.397C56.534 158.683 54.2563 153.368 55.9136 143.223C57.3478 134.444 85.7914 140.156 85.7914 140.156L85.7905 140.155Z" fill="url(#paint6_linear_227_841)"/>
<path d="M87.1905 143.586C84.0523 145.203 75.9595 148.085 66.32 146.654C61.9157 145.998 58.3926 144.532 55.9144 143.225C58.4124 135.653 56.4504 131.599 55.5242 127.86C54.2078 122.535 54.1826 122.935 53.0963 118.706C51.3042 111.724 51.0093 104.587 52.2403 103.131C54.8075 100.088 58.9618 99.3118 62.1549 99.0771C63.0955 99.0069 63.9515 98.9818 64.6619 98.962C66.4387 98.9071 69.4016 98.5618 72.4598 98.7615C75.3732 98.962 78.3703 99.6571 80.5131 101.589C80.5886 101.654 79.6876 102.14 80.1327 102.655C80.5427 103.141 81.9545 104.827 83.2358 107.11C84.1665 108.766 85.0028 110.693 85.848 113.566C87.3344 118.631 87.7651 122.945 87.9054 124.827C88.7111 135.392 87.9099 140.271 87.1896 143.585L87.1905 143.586Z" fill="url(#paint7_linear_227_841)"/>
<path d="M80.1166 224.944C80.1166 224.944 77.374 224.708 77.1618 225.275C76.9487 225.842 76.9253 227.285 78.6041 227C80.2829 226.716 80.3297 225.369 80.1175 224.944H80.1166Z" fill="url(#paint8_linear_227_841)"/>
<path d="M66.9432 94.0011C66.4513 93.707 66.0763 94.3401 66.3083 94.8931C66.5403 95.4461 67.3191 95.7923 67.7911 95.4623C68.2632 95.1323 67.605 94.3967 66.9432 94.0011Z" fill="url(#paint9_linear_227_841)"/>
<path d="M73.0461 99.5375C73.0461 100.493 70.5634 101.269 67.4953 101.269C64.4272 101.269 61.9499 100.493 61.9499 99.5375C61.9499 99.3774 62.0201 99.2219 62.1549 99.0771C63.0955 99.0069 63.9515 98.9818 64.6619 98.962C66.4387 98.9071 69.4016 98.5618 72.4598 98.7615C72.8348 98.9962 73.0452 99.2623 73.0452 99.5375H73.0461Z" fill="url(#paint10_linear_227_841)"/>
<path d="M68.9862 98.7965C68.6651 98.0745 68.345 97.3524 68.0231 96.6294C68.3037 96.3534 70.1407 94.9794 70.103 93.4229C70.0517 91.3107 68.372 89.6975 68.0429 89.3738C66.6635 88.0196 66.3695 87.8667 65.8632 87.7138L65.1681 87.5331C65.1681 87.5331 65.1304 87.5295 65.0908 87.5286C64.6745 87.5106 63.385 87.864 63.1431 87.9989C62.3707 88.4296 62.5245 92.0678 64.2384 96.7535C64.2599 96.946 64.2833 97.1384 64.3076 97.3326C64.4614 98.5421 64.6673 99.6984 64.911 100.798C64.911 100.798 68.0735 100.933 68.9862 98.7974V98.7965Z" fill="url(#paint11_linear_227_841)"/>
<path d="M67.2471 86.8084C67.6949 88.2848 66.704 88.9197 66.427 89.2821C66.3911 89.3288 66.1959 89.6112 66.0718 90.0302C66.0548 90.0868 66.044 90.1507 66.0413 90.2307C66.0035 91.2594 67.8181 91.8996 67.6607 92.4041C67.5465 92.7701 66.418 92.6748 66.3785 92.9715C66.3416 93.2512 67.3325 93.5029 67.2948 93.8365C67.266 94.0883 66.6905 94.0424 66.4702 94.4822C66.3605 94.7007 66.4495 94.8203 66.4369 95.3912C66.4297 95.7141 66.3929 96.0755 66.3425 96.286C66.0988 97.3084 64.7518 98.0691 64.367 97.8074C64.2599 97.7346 64.3013 97.633 64.1233 97.3326C64.1233 97.3326 63.9578 97.0548 63.6422 96.7715C63.1908 96.3669 62.3608 96.2338 61.4724 95.9326C59.8269 95.376 59.2064 94.6611 59.0113 94.4156C58.9421 94.3284 58.8944 94.2601 58.8602 94.2115C58.1759 93.2314 57.6841 91.6344 57.8711 90.5023C58.1849 88.605 60.272 88.819 61.2836 86.7247C61.8474 85.5567 62.1873 84.3337 63.5451 83.8536C64.6016 83.4795 65.5764 83.8581 66.2076 84.7546C66.624 85.3471 67.0367 86.1151 67.248 86.8093L67.2471 86.8084Z" fill="#26264F"/>
<path d="M67.0241 92.2198C66.5098 91.834 66.0179 92.4958 66.2113 93.1397C66.4046 93.7835 67.2328 94.261 67.7984 93.948C68.364 93.6351 67.7156 92.7386 67.0241 92.2198Z" fill="url(#paint12_linear_227_841)"/>
<path d="M71.7467 84.5684L69.4618 83.1594C69.4618 83.1594 67.3442 82.199 65.0234 83.725C62.7034 85.2509 63.697 86.3569 63.697 86.3569L65.4037 85.5863C65.4037 85.5863 66.5035 85.0819 68.2066 85.8354C70.1713 86.4055 71.5399 86.2634 71.5399 86.2634L71.7476 84.5684H71.7467Z" fill="url(#paint13_linear_227_841)"/>
<path d="M82.4347 82.5785C77.5925 80.9491 73.0749 81.289 70.7531 81.6092C70.3026 82.1748 69.6651 83.1468 69.6075 84.3742C69.3585 89.72 80.5059 91.557 80.8026 96.5197C81.0004 99.8297 76.1205 100.313 73.448 107.47C72.1658 110.905 72.6945 112.385 73.5532 113.231C74.9128 114.569 77.3901 114.602 78.1437 114.612C84.6908 114.699 94.5784 108.203 95.4408 99.488C96.1628 92.1928 90.3737 85.25 82.4338 82.5794L82.4347 82.5785Z" fill="url(#paint14_linear_227_841)"/>
<path d="M107.246 16.9141V53.3499C107.246 58.657 102.85 62.8742 97.3714 62.7546L76.7562 62.3086L74.002 62.2502L64.1224 74.0639C63.3698 74.634 61.575 74.6385 60.9761 73.9075L59.5221 71.9661L51.8996 61.7709L51.1847 61.7538L31.4553 61.3303C29.3116 61.2817 27.4817 60.4904 25.9557 59.1929C23.9334 57.4844 22.7878 54.9055 22.8283 52.0478L23.3085 17.5714C23.3777 12.6186 27.2947 8.54884 32.2421 8.4805L36.4234 8.42025L97.5665 7.58489C99.0538 7.56601 100.377 7.86095 101.644 8.41216C104.999 9.87426 107.248 13.1096 107.248 16.9141H107.246Z" fill="url(#paint15_linear_227_841)"/>
<path d="M105.818 15.9214L105.809 52.2699C105.808 57.5644 101.26 61.7691 95.8067 61.6558L76.2931 61.2629L72.4068 61.1828L62.5623 72.4382C61.842 73.2582 60.5724 73.2376 59.8845 72.395L59.5266 71.9661L51.1856 61.7529L50.352 60.7323L29.9868 60.3169C28.478 60.2845 27.1364 59.8808 25.8973 59.1902C23.054 57.6175 21.2259 54.5467 21.2754 51.0614L21.7636 16.6606C21.8338 11.7149 25.793 7.65144 30.7269 7.58041L35.5295 7.50937L95.8328 6.61286C98.0377 6.57959 100.163 7.25759 101.804 8.41936C104.185 10.1009 105.818 12.8282 105.818 15.9214Z" fill="#E77A16"/>
<path style="mix-blend-mode:multiply" opacity="0.3" d="M76.7939 62.3086L74.0199 62.2502L64.1305 74.0639C63.3778 74.634 61.5785 74.6385 60.9797 73.9075L59.5238 71.9661L51.1846 61.7529L31.4543 61.3294C29.3106 61.2808 27.4232 60.4886 25.8972 59.1911C23.0539 57.6184 21.2268 54.5476 21.2762 51.0623L21.7645 16.6615C21.8346 11.7158 25.7938 7.65234 30.7277 7.58131L35.5304 7.51027C35.828 7.80071 36.0987 8.10015 36.3765 8.41936C39.539 11.9766 41.7394 17.112 41.2457 24.5421C39.7791 46.7677 54.8309 50.7368 68.2497 55.1905C72.3753 56.5618 74.8247 58.8125 76.2481 61.2629C76.4495 61.6073 76.6285 61.9561 76.7948 62.3095L76.7939 62.3086Z" fill="url(#paint16_linear_227_841)"/>
<path d="M56.5124 41.3212L56.516 39.2728C56.5196 37.4996 56.8883 35.9575 57.6247 34.6437C58.3639 33.3255 59.7199 31.9164 61.7026 30.4112C63.6287 28.9877 64.9083 27.8251 65.5314 26.9295C66.1564 26.0312 66.472 25.0321 66.4765 23.9315C66.4819 22.6978 66.0404 21.768 65.1529 21.144C64.268 20.5217 63.0361 20.2322 61.4616 20.2727C58.737 20.3428 55.6645 21.3346 52.2592 23.2265L49.3961 17.2423C53.3175 14.7938 57.5447 13.4666 62.0884 13.2885C65.892 13.1402 68.9511 13.9692 71.2351 15.7874C73.537 17.62 74.6844 20.1342 74.6628 23.3165C74.6485 25.435 74.1584 27.2685 73.1944 28.8133C72.235 30.3518 70.4294 32.0765 67.7974 33.9783C66.0089 35.3163 64.8831 36.3279 64.411 37.0203C63.9398 37.7109 63.7024 38.6182 63.6988 39.7413L63.6926 41.4246L56.5133 41.3203L56.5124 41.3212ZM55.6429 50.7314C55.6456 49.1919 56.0466 48.0383 56.8478 47.2685C57.6526 46.497 58.8261 46.1284 60.3745 46.1652C61.878 46.2012 63.046 46.6382 63.8742 47.479C64.7042 48.3224 65.1178 49.5103 65.1115 51.0407C65.1052 52.5136 64.679 53.6583 63.8337 54.4721C62.9921 55.2832 61.8285 55.6563 60.3475 55.5943C58.8387 55.5313 57.6787 55.0745 56.8613 54.2257C56.0466 53.3786 55.6411 52.2151 55.6429 50.7314Z" fill="white"/>
<defs>
<linearGradient id="paint0_linear_227_841" x1="58.9304" y1="-6.13425" x2="45.062" y2="173.317" gradientUnits="userSpaceOnUse">
<stop stop-color="#AA80F9"/>
<stop offset="1" stop-color="#6165D7"/>
</linearGradient>
<linearGradient id="paint1_linear_227_841" x1="52.8056" y1="220.216" x2="48.0365" y2="223.385" gradientUnits="userSpaceOnUse">
<stop stop-color="#444B8C"/>
<stop offset="1" stop-color="#26264F"/>
</linearGradient>
<linearGradient id="paint2_linear_227_841" x1="48.1854" y1="223.418" x2="49.2292" y2="216.037" gradientUnits="userSpaceOnUse">
<stop stop-color="#FFC444"/>
<stop offset="1" stop-color="#F36F56"/>
</linearGradient>
<linearGradient id="paint3_linear_227_841" x1="52.4478" y1="219.677" x2="47.6776" y2="222.846" gradientUnits="userSpaceOnUse">
<stop stop-color="#444B8C"/>
<stop offset="1" stop-color="#26264F"/>
</linearGradient>
<linearGradient id="paint4_linear_227_841" x1="83.0929" y1="222.598" x2="78.8145" y2="226.404" gradientUnits="userSpaceOnUse">
<stop stop-color="#444B8C"/>
<stop offset="1" stop-color="#26264F"/>
</linearGradient>
<linearGradient id="paint5_linear_227_841" x1="78.9718" y1="226.412" x2="78.9718" y2="218.958" gradientUnits="userSpaceOnUse">
<stop stop-color="#FFC444"/>
<stop offset="1" stop-color="#F36F56"/>
</linearGradient>
<linearGradient id="paint6_linear_227_841" x1="79.3234" y1="229.83" x2="51.4203" y2="117.173" gradientUnits="userSpaceOnUse">
<stop stop-color="#444B8C"/>
<stop offset="1" stop-color="#26264F"/>
</linearGradient>
<linearGradient id="paint7_linear_227_841" x1="79.4898" y1="-3.55804" x2="68.479" y2="138.915" gradientUnits="userSpaceOnUse">
<stop stop-color="#AA80F9"/>
<stop offset="1" stop-color="#6165D7"/>
</linearGradient>
<linearGradient id="paint8_linear_227_841" x1="82.6631" y1="222.115" x2="78.3838" y2="225.921" gradientUnits="userSpaceOnUse">
<stop stop-color="#444B8C"/>
<stop offset="1" stop-color="#26264F"/>
</linearGradient>
<linearGradient id="paint9_linear_227_841" x1="66.1513" y1="92.0085" x2="69.6212" y2="102.648" gradientUnits="userSpaceOnUse">
<stop stop-color="#FFC444"/>
<stop offset="1" stop-color="#F36F56"/>
</linearGradient>
<linearGradient id="paint10_linear_227_841" x1="66.1357" y1="87.2472" x2="71.7198" y2="137.612" gradientUnits="userSpaceOnUse">
<stop stop-color="#FFC444"/>
<stop offset="1" stop-color="#F36F56"/>
</linearGradient>
<linearGradient id="paint11_linear_227_841" x1="65.9037" y1="87.2732" x2="71.4877" y2="137.637" gradientUnits="userSpaceOnUse">
<stop stop-color="#FFC444"/>
<stop offset="1" stop-color="#F36F56"/>
</linearGradient>
<linearGradient id="paint12_linear_227_841" x1="66.4244" y1="87.2157" x2="72.0085" y2="137.579" gradientUnits="userSpaceOnUse">
<stop stop-color="#FFC444"/>
<stop offset="1" stop-color="#F36F56"/>
</linearGradient>
<linearGradient id="paint13_linear_227_841" x1="64.3833" y1="84.1398" x2="71.0773" y2="85.9932" gradientUnits="userSpaceOnUse">
<stop stop-color="#FFC444"/>
<stop offset="1" stop-color="#F36F56"/>
</linearGradient>
<linearGradient id="paint14_linear_227_841" x1="89.8432" y1="-2.75861" x2="78.8325" y2="139.715" gradientUnits="userSpaceOnUse">
<stop stop-color="#AA80F9"/>
<stop offset="1" stop-color="#6165D7"/>
</linearGradient>
<linearGradient id="paint15_linear_227_841" x1="44.491" y1="1.57192" x2="78.6617" y2="56.5097" gradientUnits="userSpaceOnUse">
<stop stop-color="#311944"/>
<stop offset="1" stop-color="#893976"/>
</linearGradient>
<linearGradient id="paint16_linear_227_841" x1="21.5352" y1="13.7948" x2="52.4237" y2="63.4542" gradientUnits="userSpaceOnUse">
<stop stop-color="#FF9085"/>
<stop offset="1" stop-color="#FB6FBB"/>
</linearGradient>
</defs>
</svg>
