<svg width="48" height="65" viewBox="0 0 48 65" fill="none" xmlns="http://www.w3.org/2000/svg">
<path fill-rule="evenodd" clip-rule="evenodd" d="M47.9913 26.1918C47.9913 29.7143 46.1455 37.1429 44.278 40.8571H23.8698V64.8536C23.8196 64.9024 24.0462 64.9512 23.9958 65C14.2915 55.5945 7.53047 47.1342 3.71327 39.6189C2.23583 36.7109 1.1996 33.9445 0.603786 31.3196C0.201176 29.5457 0 27.8364 0 26.1918C0 25.7103 0.0108049 25.2336 0.0321573 24.7619C0.104447 23.1534 0.298677 21.6019 0.603786 20.1138C0.984271 18.2586 1.53686 16.5021 2.24149 14.857C6.08674 5.87595 14.4484 0.218439 23.9225 0.00606774C23.9971 0.00448485 24.0717 0.00316578 24.1465 0.00211052C24.2561 0.000791444 24.3657 0 24.4756 0C34.1763 0 42.3557 5.84457 46 15L23.8404 14.857L23.8698 24.1429H47.9913C48.0109 24.6146 47.9913 25.7103 47.9913 26.1918Z" fill="white"/>
<path d="M24 0V64.8536C23.9501 64.9024 23.9003 64.9512 23.8502 65C14.2048 55.5942 7.48477 47.1336 3.69073 39.6181C2.22226 36.71 1.19232 33.9435 0.600121 31.3185C0.199955 29.5445 0 27.8352 0 26.1905C0 25.7091 0.0107393 25.2323 0.0319622 24.7606C0.103813 23.1521 0.296865 21.6005 0.600121 20.1123C0.978298 18.2571 1.52754 16.5006 2.22789 14.8554C6.0498 5.87403 14.3607 0.216335 23.7773 0.00395735C23.8514 0.00237441 23.9256 0.00105529 24 0Z" fill="#444B8C" fill-opacity="0.8"/>
<path d="M46 15H2.17843C6.08711 5.93251 14.0096 0.220541 23.64 0.00612615C23.7158 0.00452802 23.7916 0.00319625 23.8677 0.00213083V0H24.2022C34.0629 0 42.2956 5.75644 46 15Z" fill="#E77A16" fill-opacity="0.7"/>
<path d="M48 25.6361C48 30.3027 46.7621 35.4239 44.2861 41H4.35298C2.87528 37.6725 1.19981 34.5071 0.603895 31.5035C0.201213 29.4738 0 27.518 0 25.6361C0 25.0852 0.0528624 24.5397 0.0742188 24H47.9707C47.9902 24.5397 48 25.0852 48 25.6361Z" fill="#D75E5E" fill-opacity="0.8"/>
</svg>
